<?xml version="1.0" encoding="UTF-8" standalone="no"?>
<svg width="90px" height="90px" viewBox="0 0 90 90" version="1.1" xmlns="http://www.w3.org/2000/svg" xmlns:xlink="http://www.w3.org/1999/xlink" xmlns:sketch="http://www.bohemiancoding.com/sketch/ns">
    <!-- Generator: Sketch 3.3.2 (12043) - http://www.bohemiancoding.com/sketch -->
    <title>profile</title>
    <desc>Created with Sketch.</desc>
    <defs></defs>
    <g id="Page-1" stroke="none" stroke-width="1" fill="none" fill-rule="evenodd" sketch:type="MSPage">
        <g id="profile" sketch:type="MSArtboardGroup" fill="#F98909">
            <g id="Group" sketch:type="MSLayerGroup">
                <path d="M45,0 C20.187,0 0,20.187 0,45 C0,69.813 20.187,90 45,90 C69.813,90 90,69.813 90,45 C90,20.187 69.813,0 45,0 L45,0 Z M44.9949989,88.5699997 C20.9677003,88.5699997 1.41999817,69.0222975 1.41999817,44.9949989 C1.41999817,20.9677003 20.9677003,1.41999817 44.9949989,1.41999817 C69.0222975,1.41999817 88.5699997,20.9677003 88.5699997,44.9949989 C88.5699997,69.0212741 69.0222975,88.5699997 44.9949989,88.5699997 L44.9949989,88.5699997 Z" id="Shape" sketch:type="MSShapeGroup"></path>
                <path d="M63.473,65.666 C60.15,64.31 56.423,63.767 54.246,60.613 C53.372,59.347 53.584,57.677 53.584,56.224 L53.584,52.429 L53.584,52.118 C53.584,52.721 54.01,51.877 54.104,51.756 C54.649,51.057 55.084,50.292 55.482,49.502 C56.292,47.893 56.847,46.156 57.36,44.429 C59.945,44.26 62.004,38.086 59.74,36.301 C61.314,30.532 62.72,22.824 59.283,17.533 C57.925,15.443 55.675,14.449 53.236,14.418 C52.684,14.411 52.213,13.511 51.902,13.116 C51.415,12.499 50.815,12.12 50.087,11.84 C47.415,10.811 43.768,11.254 41.02,11.764 C38.523,12.228 36.182,13.326 34.283,15.013 C30.24,18.604 29.443,24.527 29.59,29.628 C29.655,31.879 29.946,34.123 30.328,36.341 C29.44,37.195 29.53,39.151 29.686,40.126 C29.934,41.679 30.776,43.729 32.386,44.3 C32.991,46.063 33.668,47.798 34.534,49.451 C34.863,50.079 35.244,50.677 35.655,51.253 C35.812,51.474 35.984,51.685 36.153,51.896 C36.441,52.257 36.524,52.445 36.511,52.076 C36.587,54.305 36.69,56.557 36.559,58.785 C36.299,63.212 30.279,64.26 27.089,65.447 C23.558,66.761 20.073,68.671 17.576,71.547 C16.939,72.281 18.005,73.356 18.647,72.618 C21.455,69.384 25.48,67.518 29.481,66.215 C33.052,65.052 37.058,63.56 37.996,59.453 C38.506,57.221 38.104,54.556 38.032,52.284 C38,51.273 36.928,50.482 36.399,49.653 C35.189,47.76 34.416,45.599 33.704,43.482 C33.586,43.132 33.33,42.966 32.974,42.926 C32.141,42.833 31.552,41.333 31.336,40.692 C31.236,40.395 30.76,37.601 31.358,37.441 C31.783,37.327 31.959,36.913 31.887,36.51 C30.878,30.891 30.276,24.388 33.006,19.134 C35.727,13.897 41.517,12.741 46.944,12.89 C48.032,12.92 49.256,12.989 50.212,13.567 C50.704,13.864 51.014,14.463 51.37,14.897 C51.999,15.666 52.611,15.925 53.581,15.937 C54.911,15.954 56.166,16.452 57.151,17.336 C59.296,19.262 59.681,22.655 59.759,25.352 C59.868,29.106 59.131,32.868 58.122,36.466 C58.008,36.873 58.258,37.276 58.651,37.397 C59.595,37.69 58.951,40.188 58.805,40.726 C58.729,41.005 57.642,43.146 57.204,42.92 C56.767,42.694 56.234,42.886 56.092,43.373 C55.478,45.47 54.822,47.557 53.784,49.489 C53.196,50.582 52.071,51.333 52.071,52.604 C52.071,55.317 51.551,58.571 52.765,61.079 C54.074,63.784 57.44,65.286 60.12,66.09 C64.254,67.329 68.481,69.306 71.357,72.618 C71.998,73.357 73.065,72.281 72.428,71.547 C70.039,68.797 66.802,67.025 63.473,65.666 L63.473,65.666 Z" id="Shape" sketch:type="MSShapeGroup"></path>
            </g>
        </g>
    </g>
</svg>