<?xml version="1.0" encoding="UTF-8" standalone="no"?>
<svg width="40px" height="40px" viewBox="0 0 40 40" version="1.1" xmlns="http://www.w3.org/2000/svg" xmlns:xlink="http://www.w3.org/1999/xlink" xmlns:sketch="http://www.bohemiancoding.com/sketch/ns">
    <!-- Generator: Sketch 3.3.3 (12072) - http://www.bohemiancoding.com/sketch -->
    <title>search</title>
    <desc>Created with Sketch.</desc>
    <defs>
        <filter x="-50%" y="-50%" width="200%" height="200%" filterUnits="objectBoundingBox" id="filter-1">
            <feOffset dx="0" dy="2" in="SourceAlpha" result="shadowOffsetOuter1"></feOffset>
            <feGaussianBlur stdDeviation="2" in="shadowOffsetOuter1" result="shadowBlurOuter1"></feGaussianBlur>
            <feColorMatrix values="0 0 0 0 0   0 0 0 0 0   0 0 0 0 0  0 0 0 0.35 0" in="shadowBlurOuter1" type="matrix" result="shadowMatrixOuter1"></feColorMatrix>
            <feMerge>
                <feMergeNode in="shadowMatrixOuter1"></feMergeNode>
                <feMergeNode in="SourceGraphic"></feMergeNode>
            </feMerge>
        </filter>
    </defs>
    <g id="Page-1" stroke="none" stroke-width="1" fill="none" fill-rule="evenodd" sketch:type="MSPage">
        <g id="search" sketch:type="MSArtboardGroup" filter="url(#filter-1)" fill="#FFFFFF">
            <path d="M23.8934595,26.7218866 C22.3125934,27.7689261 20.4168443,28.3786797 18.3786797,28.3786797 C12.8558322,28.3786797 8.37867966,23.9015272 8.37867966,18.3786797 C8.37867966,12.8558322 12.8558322,8.37867966 18.3786797,8.37867966 C23.9015272,8.37867966 28.3786797,12.8558322 28.3786797,18.3786797 C28.3786797,20.4168443 27.7689261,22.3125934 26.7218866,23.8934595 L31.6213203,28.7928932 L28.7928932,31.6213203 L23.8934595,26.7218866 Z M18.3786797,24.3786797 C21.6923882,24.3786797 24.3786797,21.6923882 24.3786797,18.3786797 C24.3786797,15.0649712 21.6923882,12.3786797 18.3786797,12.3786797 C15.0649712,12.3786797 12.3786797,15.0649712 12.3786797,18.3786797 C12.3786797,21.6923882 15.0649712,24.3786797 18.3786797,24.3786797 Z" id="Oval-1" sketch:type="MSShapeGroup"></path>
        </g>
    </g>
</svg>