<?xml version="1.0" encoding="UTF-8" standalone="no"?>
<svg width="20px" height="20px" viewBox="0 0 20 20" version="1.1" xmlns="http://www.w3.org/2000/svg" xmlns:xlink="http://www.w3.org/1999/xlink" xmlns:sketch="http://www.bohemiancoding.com/sketch/ns">
    <!-- Generator: Sketch 3.3.2 (12043) - http://www.bohemiancoding.com/sketch -->
    <title>close</title>
    <desc>Created with Sketch.</desc>
    <defs></defs>
    <g id="Page-1" stroke="none" stroke-width="1" fill="none" fill-rule="evenodd" sketch:type="MSPage">
        <g id="close" sketch:type="MSArtboardGroup" fill="#000000">
            <g id="Rectangle-46-+-Rectangle-46-Copy-2-+-Rectangle-50-Copy" sketch:type="MSLayerGroup" transform="translate(2.000000, 1.000000)">
                <rect id="Rectangle-46" sketch:type="MSShapeGroup" x="0" y="1" width="2" height="2"></rect>
                <rect id="Rectangle-50-Copy" sketch:type="MSShapeGroup" transform="translate(5.243427, 6.242641) rotate(-45.000000) translate(-5.243427, -6.242641) " x="3.82842713" y="0.24264067" width="2.82999992" height="12"></rect>
            </g>
            <g id="Rectangle-46-+-Rectangle-46-Copy-2-+-Rectangle-50-Copy-Copy" sketch:type="MSLayerGroup" transform="translate(12.500000, 13.000000) rotate(-180.000000) translate(-12.500000, -13.000000) translate(7.000000, 7.000000)">
                <rect id="Rectangle-46" sketch:type="MSShapeGroup" x="-3.55271368e-15" y="1" width="2" height="2"></rect>
                <rect id="Rectangle-50-Copy" sketch:type="MSShapeGroup" transform="translate(5.243427, 6.242641) rotate(-45.000000) translate(-5.243427, -6.242641) " x="3.82842713" y="0.24264067" width="2.82999992" height="12"></rect>
            </g>
            <g id="Rectangle-46-+-Rectangle-46-Copy-2-+-Rectangle-50-Copy-Copy-Copy" sketch:type="MSLayerGroup" transform="translate(13.000000, 7.000000) rotate(-270.000000) translate(-13.000000, -7.000000) translate(7.000000, 1.000000)">
                <rect id="Rectangle-46" sketch:type="MSShapeGroup" x="1" y="1" width="2" height="2"></rect>
                <rect id="Rectangle-50-Copy" sketch:type="MSShapeGroup" transform="translate(6.243427, 6.242641) rotate(-45.000000) translate(-6.243427, -6.242641) " x="4.82842713" y="0.24264067" width="2.82999992" height="12"></rect>
            </g>
            <g id="Rectangle-46-+-Rectangle-46-Copy-2-+-Rectangle-50-Copy-Copy-Copy-Copy" sketch:type="MSLayerGroup" transform="translate(7.000000, 12.500000) rotate(-90.000000) translate(-7.000000, -12.500000) translate(1.500000, 6.500000)">
                <rect id="Rectangle-46" sketch:type="MSShapeGroup" x="3.55271368e-15" y="1" width="2" height="2"></rect>
                <rect id="Rectangle-50-Copy" sketch:type="MSShapeGroup" transform="translate(5.243427, 6.242641) rotate(-45.000000) translate(-5.243427, -6.242641) " x="3.82842713" y="0.24264067" width="2.82999992" height="12"></rect>
            </g>
        </g>
    </g>
</svg>