<?xml version="1.0" encoding="UTF-8" standalone="no"?>
<svg width="66px" height="42px" viewBox="0 0 66 42" version="1.1" xmlns="http://www.w3.org/2000/svg" xmlns:xlink="http://www.w3.org/1999/xlink" xmlns:sketch="http://www.bohemiancoding.com/sketch/ns">
    <!-- Generator: Sketch 3.3.2 (12043) - http://www.bohemiancoding.com/sketch -->
    <title>numbers10</title>
    <desc>Created with Sketch.</desc>
    <defs></defs>
    <g id="Page-1" stroke="none" stroke-width="1" fill="none" fill-rule="evenodd" sketch:type="MSPage">
        <g id="numbers10" sketch:type="MSArtboardGroup" fill="#FB0B1A">
            <g id="Group-Copy" sketch:type="MSLayerGroup" transform="translate(1.000000, 2.000000)">
                <path d="M5.5,4 L14.5,4 L18.5,8.8817842e-16 L12.5,2.22044605e-16 L12.5,0 L7.5,0 L1.5,0 L5.5,4 Z" id="Triangle-1-Copy-2" sketch:type="MSShapeGroup"></path>
                <path d="M12.5,11.5 L21.5,11.5 L25.5,7.5 L19.5,7.5 L19.5,7.5 L14.5,7.5 L8.5,7.5 L12.5,11.5 Z" id="Triangle-1-Copy-10" sketch:type="MSShapeGroup" transform="translate(17.000000, 9.500000) rotate(-270.000000) translate(-17.000000, -9.500000) "></path>
                <path d="M12.5,30.5 L21.5,30.5 L25.5,26.5 L19.5,26.5 L19.5,26.5 L14.5,26.5 L8.5,26.5 L12.5,30.5 Z" id="Triangle-1-Copy-11" sketch:type="MSShapeGroup" transform="translate(17.000000, 28.500000) rotate(-270.000000) translate(-17.000000, -28.500000) "></path>
                <path d="M-1.5,30.5 L7.5,30.5 L11.5,26.5 L5.5,26.5 L5.5,26.5 L0.5,26.5 L-5.5,26.5 L-1.5,30.5 Z" id="Triangle-1-Copy-12" sketch:type="MSShapeGroup" transform="translate(3.000000, 28.500000) rotate(-90.000000) translate(-3.000000, -28.500000) "></path>
                <path d="M-1.5,11.5 L7.5,11.5 L11.5,7.5 L5.5,7.5 L5.5,7.5 L0.5,7.5 L-5.5,7.5 L-1.5,11.5 Z" id="Triangle-1-Copy-13" sketch:type="MSShapeGroup" transform="translate(3.000000, 9.500000) rotate(-90.000000) translate(-3.000000, -9.500000) "></path>
                <path d="M6,38 L14,38 L18,34 L12,34 L12,34 L8,34 L2,34 L6,38 Z" id="Triangle-1-Copy-6" sketch:type="MSShapeGroup" transform="translate(10.000000, 36.000000) rotate(-180.000000) translate(-10.000000, -36.000000) "></path>
                <path d="M16,21.5 L16,16.5 L18.5,19 L16,21.5 Z M4,16.5 L4,21.5 L1.5,19 L4,16.5 Z M4,16.5 L16,16.5 L16,21.5 L4,21.5 L4,16.5 Z" id="Triangle-1-Copy-9" opacity="0.35" sketch:type="MSShapeGroup" transform="translate(10.000000, 19.000000) rotate(-180.000000) translate(-10.000000, -19.000000) "></path>
            </g>
            <g id="Group-Copy-2" sketch:type="MSLayerGroup" transform="translate(23.000000, 2.000000)">
                <path d="M5.5,4 L14.5,4 L18.5,8.8817842e-16 L12.5,2.22044605e-16 L12.5,0 L7.5,0 L1.5,0 L5.5,4 Z" id="Triangle-1-Copy-2" opacity="0.35" sketch:type="MSShapeGroup"></path>
                <path d="M12.5,11.5 L21.5,11.5 L25.5,7.5 L19.5,7.5 L19.5,7.5 L14.5,7.5 L8.5,7.5 L12.5,11.5 Z" id="Triangle-1-Copy-10" sketch:type="MSShapeGroup" transform="translate(17.000000, 9.500000) rotate(-270.000000) translate(-17.000000, -9.500000) "></path>
                <path d="M12.5,30.5 L21.5,30.5 L25.5,26.5 L19.5,26.5 L19.5,26.5 L14.5,26.5 L8.5,26.5 L12.5,30.5 Z" id="Triangle-1-Copy-11" sketch:type="MSShapeGroup" transform="translate(17.000000, 28.500000) rotate(-270.000000) translate(-17.000000, -28.500000) "></path>
                <path d="M-1.5,30.5 L7.5,30.5 L11.5,26.5 L5.5,26.5 L5.5,26.5 L0.5,26.5 L-5.5,26.5 L-1.5,30.5 Z" id="Triangle-1-Copy-12" opacity="0.35" sketch:type="MSShapeGroup" transform="translate(3.000000, 28.500000) rotate(-90.000000) translate(-3.000000, -28.500000) "></path>
                <path d="M-1.5,11.5 L7.5,11.5 L11.5,7.5 L5.5,7.5 L5.5,7.5 L0.5,7.5 L-5.5,7.5 L-1.5,11.5 Z" id="Triangle-1-Copy-13" opacity="0.35" sketch:type="MSShapeGroup" transform="translate(3.000000, 9.500000) rotate(-90.000000) translate(-3.000000, -9.500000) "></path>
                <path d="M6,38 L14,38 L18,34 L12,34 L12,34 L8,34 L2,34 L6,38 Z" id="Triangle-1-Copy-6" opacity="0.35" sketch:type="MSShapeGroup" transform="translate(10.000000, 36.000000) rotate(-180.000000) translate(-10.000000, -36.000000) "></path>
                <path d="M16,21.5 L16,16.5 L18.5,19 L16,21.5 Z M4,16.5 L4,21.5 L1.5,19 L4,16.5 Z M4,16.5 L16,16.5 L16,21.5 L4,21.5 L4,16.5 Z" id="Triangle-1-Copy-9" opacity="0.35" sketch:type="MSShapeGroup" transform="translate(10.000000, 19.000000) rotate(-180.000000) translate(-10.000000, -19.000000) "></path>
            </g>
            <g id="Group-Copy-3" sketch:type="MSLayerGroup" transform="translate(45.000000, 2.000000)">
                <path d="M5.5,4 L14.5,4 L18.5,8.8817842e-16 L12.5,2.22044605e-16 L12.5,0 L7.5,0 L1.5,0 L5.5,4 Z" id="Triangle-1-Copy-2" sketch:type="MSShapeGroup"></path>
                <path d="M12.5,11.5 L21.5,11.5 L25.5,7.5 L19.5,7.5 L19.5,7.5 L14.5,7.5 L8.5,7.5 L12.5,11.5 Z" id="Triangle-1-Copy-10" sketch:type="MSShapeGroup" transform="translate(17.000000, 9.500000) rotate(-270.000000) translate(-17.000000, -9.500000) "></path>
                <path d="M12.5,30.5 L21.5,30.5 L25.5,26.5 L19.5,26.5 L19.5,26.5 L14.5,26.5 L8.5,26.5 L12.5,30.5 Z" id="Triangle-1-Copy-11" sketch:type="MSShapeGroup" transform="translate(17.000000, 28.500000) rotate(-270.000000) translate(-17.000000, -28.500000) "></path>
                <path d="M-1.5,30.5 L7.5,30.5 L11.5,26.5 L5.5,26.5 L5.5,26.5 L0.5,26.5 L-5.5,26.5 L-1.5,30.5 Z" id="Triangle-1-Copy-12" sketch:type="MSShapeGroup" transform="translate(3.000000, 28.500000) rotate(-90.000000) translate(-3.000000, -28.500000) "></path>
                <path d="M-1.5,11.5 L7.5,11.5 L11.5,7.5 L5.5,7.5 L5.5,7.5 L0.5,7.5 L-5.5,7.5 L-1.5,11.5 Z" id="Triangle-1-Copy-13" sketch:type="MSShapeGroup" transform="translate(3.000000, 9.500000) rotate(-90.000000) translate(-3.000000, -9.500000) "></path>
                <path d="M6,38 L14,38 L18,34 L12,34 L12,34 L8,34 L2,34 L6,38 Z" id="Triangle-1-Copy-6" sketch:type="MSShapeGroup" transform="translate(10.000000, 36.000000) rotate(-180.000000) translate(-10.000000, -36.000000) "></path>
                <path d="M16,21.5 L16,16.5 L18.5,19 L16,21.5 Z M4,16.5 L4,21.5 L1.5,19 L4,16.5 Z M4,16.5 L16,16.5 L16,21.5 L4,21.5 L4,16.5 Z" id="Triangle-1-Copy-9" opacity="0.35" sketch:type="MSShapeGroup" transform="translate(10.000000, 19.000000) rotate(-180.000000) translate(-10.000000, -19.000000) "></path>
            </g>
        </g>
    </g>
</svg>