<?xml version="1.0" encoding="UTF-8" standalone="no"?>
<svg width="16px" height="16px" viewBox="0 0 16 16" version="1.1" xmlns="http://www.w3.org/2000/svg" xmlns:xlink="http://www.w3.org/1999/xlink" xmlns:sketch="http://www.bohemiancoding.com/sketch/ns">
    <!-- Generator: Sketch 3.3.2 (12043) - http://www.bohemiancoding.com/sketch -->
    <title>fullscreen</title>
    <desc>Created with Sketch.</desc>
    <defs></defs>
    <g id="Page-1" stroke="none" stroke-width="1" fill="none" fill-rule="evenodd" sketch:type="MSPage">
        <g id="fullscreen" sketch:type="MSArtboardGroup" fill="#D5D5D3">
            <path d="M2,14 L2,10.990778 C2,10.4509752 1.55228475,10 1,10 C0.443864822,10 0,10.4435864 0,10.990778 L0,15.009222 C0,15.2776212 0.110686291,15.5240599 0.289877905,15.7040215 C0.472219338,15.8902538 0.718690398,16 0.990777969,16 L5.00922203,16 C5.54902482,16 6,15.5522847 6,15 C6,14.4438648 5.55641359,14 5.00922203,14 L2,14 Z M15.7115371,15.7068284 C15.8902571,15.5277733 16,15.2813055 16,15.009222 L16,10.990778 C16,10.4509752 15.5522847,10 15,10 C14.4438648,10 14,10.4435864 14,10.990778 L14,14 L10.990778,14 C10.4509752,14 10,14.4477153 10,15 C10,15.5561352 10.4435864,16 10.990778,16 L15.009222,16 C15.2776249,16 15.5240668,15.8893106 15.7040291,15.7101145 L15.7115371,15.7068284 Z M15.7101221,0.295978495 C15.8893137,0.475940099 16,0.722378842 16,0.990777969 L16,5.00922203 C16,5.55641359 15.5561352,6 15,6 C14.4477153,6 14,5.54902482 14,5.00922203 L14,2 L10.990778,2 C10.4435864,2 10,1.55613518 10,1 C10,0.44771525 10.4509752,0 10.990778,0 L15.009222,0 C15.2813096,0 15.5277807,0.109746165 15.7068365,0.288470888 L15.7101221,0.295978495 Z M0.288462852,0.293171553 C0.109742875,0.472226725 0,0.718694475 0,0.990777969 L0,5.00922203 C0,5.54902482 0.44771525,6 1,6 C1.55613518,6 2,5.55641359 2,5.00922203 L2,2 L5.00922203,2 C5.54902482,2 6,1.55228475 6,1 C6,0.443864822 5.55641359,0 5.00922203,0 L0.990777969,0 C0.722375058,0 0.47593315,0.110689412 0.295970883,0.289885485 L0.288462852,0.293171553 Z" id="Rectangle-1" sketch:type="MSShapeGroup"></path>
        </g>
    </g>
</svg>