<?xml version="1.0" encoding="UTF-8" standalone="no"?>
<svg width="14px" height="16px" viewBox="0 0 14 16" version="1.1" xmlns="http://www.w3.org/2000/svg" xmlns:xlink="http://www.w3.org/1999/xlink" xmlns:sketch="http://www.bohemiancoding.com/sketch/ns">
    <!-- Generator: Sketch 3.3.2 (12043) - http://www.bohemiancoding.com/sketch -->
    <title>low_volume</title>
    <desc>Created with Sketch.</desc>
    <defs></defs>
    <g id="Page-1" stroke="none" stroke-width="1" fill="none" fill-rule="evenodd" sketch:type="MSPage">
        <g id="low_volume" sketch:type="MSArtboardGroup" fill="#D5D5D3">
            <path d="M0,4.75468002 L0,11.3745505 L3.76853065,11.3745505 L9.41000846,16.0032619 L9.41336199,0.121776709 L3.7710458,4.75468002 L0,4.75468002 L0,4.75468002 Z M11.5755512,3.99342844 C11.2452284,3.66729754 10.7195624,3.66729754 10.3884012,3.99594359 C10.0622703,4.32375126 10.0622703,4.85360919 10.3900779,5.18225524 L10.3900779,5.18057848 C11.1136023,5.90494121 11.5604603,6.8992632 11.5604603,8.00257496 C11.5604603,9.10337156 11.1152791,10.0951784 10.3909163,10.8178644 C10.0605935,11.1465104 10.0605935,11.6746916 10.3892396,12.0075296 C10.5518858,12.1710142 10.7665118,12.2531757 10.9819762,12.2531757 C11.198279,12.2531757 11.4187736,12.1710142 11.5763896,12.0075296 C12.600055,10.9838642 13.2355491,9.56280533 13.2355491,8.00425172 C13.2372259,6.43899105 12.5992166,5.01625545 11.5755512,3.99342844 L11.5755512,3.99342844 Z" id="Shape" sketch:type="MSShapeGroup"></path>
        </g>
    </g>
</svg>