<?xml version="1.0" encoding="UTF-8" standalone="no"?>
<svg width="19px" height="16px" viewBox="0 0 19 16" version="1.1" xmlns="http://www.w3.org/2000/svg" xmlns:xlink="http://www.w3.org/1999/xlink" xmlns:sketch="http://www.bohemiancoding.com/sketch/ns">
    <!-- Generator: Sketch 3.3.2 (12043) - http://www.bohemiancoding.com/sketch -->
    <title>high_volume</title>
    <desc>Created with Sketch.</desc>
    <defs></defs>
    <g id="Page-1" stroke="none" stroke-width="1" fill="none" fill-rule="evenodd" sketch:type="MSPage">
        <g id="high_volume" sketch:type="MSArtboardGroup" fill="#D5D5D3">
            <path d="M0,4.75468002 L0,11.3745505 L3.76853065,11.3745505 L9.41000846,16.0032619 L9.41336199,0.121776709 L3.7710458,4.75468002 L0,4.75468002 L0,4.75468002 Z M11.5755512,3.99342844 C11.2452284,3.66729754 10.7195624,3.66729754 10.3884012,3.99594359 C10.0622703,4.32375126 10.0622703,4.85360919 10.3900779,5.18225524 L10.3900779,5.18057848 C11.1136023,5.90494121 11.5604603,6.8992632 11.5604603,8.00257496 C11.5604603,9.10337156 11.1152791,10.0951784 10.3909163,10.8178644 C10.0605935,11.1465104 10.0605935,11.6746916 10.3892396,12.0075296 C10.5518858,12.1710142 10.7665118,12.2531757 10.9819762,12.2531757 C11.198279,12.2531757 11.4187736,12.1710142 11.5763896,12.0075296 C12.600055,10.9838642 13.2355491,9.56280533 13.2355491,8.00425172 C13.2372259,6.43899105 12.5992166,5.01625545 11.5755512,3.99342844 L11.5755512,3.99342844 Z M13.4996397,2.07017832 C13.1693169,1.74237065 12.6436509,1.74237065 12.3141665,2.07017832 C11.9855204,2.39798599 11.9855204,2.92952068 12.3141665,3.25565159 C13.5306599,4.47214502 14.2877195,6.14555707 14.2877195,8.00173658 C14.2877195,9.85623931 13.5365286,11.528813 12.3150048,12.7469832 C11.9830053,13.0731141 11.9830053,13.602972 12.3150048,13.9316181 C12.4726208,14.0934259 12.6931155,14.1781026 12.9094182,14.1781026 C13.1240442,14.1781026 13.3462157,14.0934259 13.5021549,13.9316181 C15.0213045,12.4133068 15.9653235,10.3139963 15.9644851,8.00173658 C15.9586165,5.68947683 15.017951,3.58513602 13.4996397,2.07017832 L13.4996397,2.07017832 Z M15.3256374,0.245018979 C14.9936379,-0.0827886926 14.4679719,-0.081111927 14.1418409,0.246695745 C13.8123565,0.572826651 13.8123565,1.10436134 14.1435177,1.43133063 L14.1418409,1.43133063 C15.826152,3.11564166 16.8632315,5.43209332 16.8632315,8.00257496 C16.8632315,10.5697031 15.826152,12.8886699 14.1435177,14.5729809 C13.8140333,14.901627 13.8140333,15.4289697 14.1451945,15.7601309 C14.3070024,15.9177469 14.5216283,16.0041003 14.7370927,16.0041003 C14.9517187,16.0041003 15.1671831,15.9169085 15.3306677,15.7584542 C17.3100895,13.7748405 18.5425122,11.0249449 18.5399971,8.00257496 C18.5425122,4.97517469 17.3100895,2.22611752 15.3256374,0.245018979 L15.3256374,0.245018979 Z" id="Shape" sketch:type="MSShapeGroup"></path>
        </g>
    </g>
</svg>